<?xml version="1.0" encoding="UTF-8" standalone="no"?>
<!DOCTYPE svg PUBLIC "-//W3C//DTD SVG 1.1//EN"
 "http://www.w3.org/Graphics/SVG/1.1/DTD/svg11.dtd">
<!-- Generated by graphviz version 2.40.1 (20161225.0304)
 -->
<!-- Title: G Pages: 1 -->
<svg width="890pt" height="517pt"
 viewBox="0.00 0.00 890.44 517.00" xmlns="http://www.w3.org/2000/svg" xmlns:xlink="http://www.w3.org/1999/xlink">
<g id="graph0" class="graph" transform="scale(1 1) rotate(0) translate(4 513)">
<title>G</title>
<polygon fill="#ffffff" stroke="transparent" points="-4,4 -4,-513 886.443,-513 886.443,4 -4,4"/>
<!-- A0 -->
<g id="node1" class="node">
<title>A0</title>
<ellipse fill="none" stroke="#000000" cx="54.846" cy="-498" rx="11" ry="11"/>
</g>
<!-- A1 -->
<g id="node2" class="node">
<title>A1</title>
<path fill="none" stroke="#000000" d="M97.5384,-439C97.5384,-439 12.1536,-439 12.1536,-439 6.1536,-439 .1536,-433 .1536,-427 .1536,-427 .1536,-415 .1536,-415 .1536,-409 6.1536,-403 12.1536,-403 12.1536,-403 97.5384,-403 97.5384,-403 103.5384,-403 109.5384,-409 109.5384,-415 109.5384,-415 109.5384,-427 109.5384,-427 109.5384,-433 103.5384,-439 97.5384,-439"/>
<text text-anchor="middle" x="54.846" y="-418" font-family="Helvetica,sans-Serif" font-size="10.00" fill="#000000">{Kernel is running}</text>
</g>
<!-- A0&#45;&gt;A1 -->
<g id="edge1" class="edge">
<title>A0&#45;&gt;A1</title>
<path fill="none" stroke="#000000" d="M44.3257,-493.3486C30.6302,-486.5538 9.215,-472.9703 16.168,-457 17.7701,-453.3202 19.9542,-449.8468 22.4746,-446.6166"/>
<polygon fill="#000000" stroke="#000000" points="29.2927,-439.1093 25.9008,-449.5374 25.9311,-442.8106 22.5696,-446.512 22.5696,-446.512 22.5696,-446.512 25.9311,-442.8106 19.2383,-443.4866 29.2927,-439.1093 29.2927,-439.1093"/>
<text text-anchor="middle" x="45.185" y="-460" font-family="Helvetica,sans-Serif" font-size="10.00" fill="#000000">_Start kernel</text>
</g>
<!-- A1&#45;&gt;A0 -->
<g id="edge3" class="edge">
<title>A1&#45;&gt;A0</title>
<path fill="none" stroke="#000000" d="M67.4088,-439.0024C72.1262,-447.9132 75.7255,-458.9005 72.846,-469 71.6731,-473.1137 69.7305,-477.2133 67.5454,-480.9797"/>
<polygon fill="#000000" stroke="#000000" points="61.9147,-489.474 63.6891,-478.6526 64.6773,-485.3065 67.4399,-481.1389 67.4399,-481.1389 67.4399,-481.1389 64.6773,-485.3065 71.1906,-483.6253 61.9147,-489.474 61.9147,-489.474"/>
<text text-anchor="middle" x="111.244" y="-460" font-family="Helvetica,sans-Serif" font-size="10.00" fill="#000000">__Reload kernel</text>
</g>
<!-- A2 -->
<g id="node3" class="node">
<title>A2</title>
<ellipse fill="none" stroke="#000000" cx="50.846" cy="-15" rx="11" ry="11"/>
<ellipse fill="none" stroke="#000000" cx="50.846" cy="-15" rx="15" ry="15"/>
</g>
<!-- A1&#45;&gt;A2 -->
<g id="edge2" class="edge">
<title>A1&#45;&gt;A2</title>
<path fill="none" stroke="#000000" d="M49.3397,-402.8371C44.7115,-385.9505 38.846,-360.0106 38.846,-337 38.846,-337 38.846,-337 38.846,-85 38.846,-69.7252 41.6561,-52.8415 44.5566,-39.4832"/>
<polygon fill="#000000" stroke="#000000" points="46.8502,-29.6239 48.9673,-40.3834 45.7172,-34.4938 44.5843,-39.3638 44.5843,-39.3638 44.5843,-39.3638 45.7172,-34.4938 40.2013,-38.3441 46.8502,-29.6239 46.8502,-29.6239"/>
<text text-anchor="middle" x="64.131" y="-208" font-family="Helvetica,sans-Serif" font-size="10.00" fill="#000000">Stop kernel</text>
</g>
<!-- A3 -->
<g id="node4" class="node">
<title>A3</title>
<path fill="none" stroke="#000000" d="M323.7471,-355C323.7471,-355 275.9449,-355 275.9449,-355 269.9449,-355 263.9449,-349 263.9449,-343 263.9449,-343 263.9449,-331 263.9449,-331 263.9449,-325 269.9449,-319 275.9449,-319 275.9449,-319 323.7471,-319 323.7471,-319 329.7471,-319 335.7471,-325 335.7471,-331 335.7471,-331 335.7471,-343 335.7471,-343 335.7471,-349 329.7471,-355 323.7471,-355"/>
<text text-anchor="middle" x="299.846" y="-334" font-family="Helvetica,sans-Serif" font-size="10.00" fill="#000000">{Retrieve}</text>
</g>
<!-- A1&#45;&gt;A3 -->
<g id="edge4" class="edge">
<title>A1&#45;&gt;A3</title>
<path fill="none" stroke="#000000" d="M107.4046,-402.9799C151.011,-388.0291 212.3993,-366.9817 254.0273,-352.7093"/>
<polygon fill="#000000" stroke="#000000" points="263.6388,-349.4139 255.6388,-356.914 258.9091,-351.0356 254.1793,-352.6572 254.1793,-352.6572 254.1793,-352.6572 258.9091,-351.0356 252.7198,-348.4005 263.6388,-349.4139 263.6388,-349.4139"/>
<text text-anchor="middle" x="215.7465" y="-376" font-family="Helvetica,sans-Serif" font-size="10.00" fill="#000000">Set up env</text>
</g>
<!-- A4 -->
<g id="node5" class="node">
<title>A4</title>
<path fill="none" stroke="#000000" d="M424.5815,-271C424.5815,-271 393.1105,-271 393.1105,-271 387.1105,-271 381.1105,-265 381.1105,-259 381.1105,-259 381.1105,-247 381.1105,-247 381.1105,-241 387.1105,-235 393.1105,-235 393.1105,-235 424.5815,-235 424.5815,-235 430.5815,-235 436.5815,-241 436.5815,-247 436.5815,-247 436.5815,-259 436.5815,-259 436.5815,-265 430.5815,-271 424.5815,-271"/>
<text text-anchor="middle" x="408.846" y="-250" font-family="Helvetica,sans-Serif" font-size="10.00" fill="#000000">{EDA}</text>
</g>
<!-- A3&#45;&gt;A4 -->
<g id="edge5" class="edge">
<title>A3&#45;&gt;A4</title>
<path fill="none" stroke="#000000" d="M295.7305,-318.9618C294.5657,-309.1931 295.009,-297.4334 301.272,-289 309.8734,-277.4179 343.8627,-267.3018 371.3639,-260.7671"/>
<polygon fill="#000000" stroke="#000000" points="381.1433,-258.5255 372.4015,-265.146 376.2697,-259.6426 371.3961,-260.7598 371.3961,-260.7598 371.3961,-260.7598 376.2697,-259.6426 370.3907,-256.3735 381.1433,-258.5255 381.1433,-258.5255"/>
<text text-anchor="middle" x="343.633" y="-292" font-family="Helvetica,sans-Serif" font-size="10.00" fill="#000000">___Import modules</text>
</g>
<!-- A3&#45;&gt;A4 -->
<g id="edge6" class="edge">
<title>A3&#45;&gt;A4</title>
<path fill="none" stroke="#000000" d="M335.8896,-328.6992C353.0524,-323.2226 372.8364,-314.4949 386.846,-301 392.5651,-295.491 396.9328,-288.2143 400.2087,-280.9969"/>
<polygon fill="#000000" stroke="#000000" points="404.0237,-271.3634 404.5256,-282.3178 402.1827,-276.0121 400.3417,-280.6609 400.3417,-280.6609 400.3417,-280.6609 402.1827,-276.0121 396.1579,-279.004 404.0237,-271.3634 404.0237,-271.3634"/>
<text text-anchor="middle" x="433.7485" y="-292" font-family="Helvetica,sans-Serif" font-size="10.00" fill="#000000">___Reading Data</text>
</g>
<!-- A5 -->
<g id="node6" class="node">
<title>A5</title>
<path fill="none" stroke="#000000" d="M423.846,-187C423.846,-187 393.846,-187 393.846,-187 387.846,-187 381.846,-181 381.846,-175 381.846,-175 381.846,-163 381.846,-163 381.846,-157 387.846,-151 393.846,-151 393.846,-151 423.846,-151 423.846,-151 429.846,-151 435.846,-157 435.846,-163 435.846,-163 435.846,-175 435.846,-175 435.846,-181 429.846,-187 423.846,-187"/>
<text text-anchor="middle" x="408.846" y="-166" font-family="Helvetica,sans-Serif" font-size="10.00" fill="#000000">{FE}</text>
</g>
<!-- A4&#45;&gt;A5 -->
<g id="edge7" class="edge">
<title>A4&#45;&gt;A5</title>
<path fill="none" stroke="#000000" d="M380.9753,-251.6678C310.8276,-248.0309 131.2937,-236.8544 113.714,-217 110.1784,-213.007 110.1784,-208.993 113.714,-205 130.5653,-185.9683 296.2273,-174.9102 371.7112,-170.8232"/>
<polygon fill="#000000" stroke="#000000" points="381.7389,-170.2926 371.9907,-175.3148 376.7459,-170.5569 371.7529,-170.8211 371.7529,-170.8211 371.7529,-170.8211 376.7459,-170.5569 371.5151,-166.3273 381.7389,-170.2926 381.7389,-170.2926"/>
<text text-anchor="middle" x="160.912" y="-208" font-family="Helvetica,sans-Serif" font-size="10.00" fill="#000000">____Data Description</text>
</g>
<!-- A4&#45;&gt;A5 -->
<g id="edge8" class="edge">
<title>A4&#45;&gt;A5</title>
<path fill="none" stroke="#000000" d="M380.9665,-251.4743C336.0488,-248.3689 250.8191,-239.5841 232.377,-217 229.0037,-212.869 229.0037,-209.131 232.377,-205 249.6143,-183.8912 325.1981,-174.8377 371.6772,-171.2093"/>
<polygon fill="#000000" stroke="#000000" points="381.6856,-170.4763 372.0411,-175.6948 376.699,-170.8415 371.7123,-171.2068 371.7123,-171.2068 371.7123,-171.2068 376.699,-170.8415 371.3836,-166.7188 381.6856,-170.4763 381.6856,-170.4763"/>
<text text-anchor="middle" x="309.0805" y="-208" font-family="Helvetica,sans-Serif" font-size="10.00" fill="#000000">____Host Distribution Visualization</text>
</g>
<!-- A4&#45;&gt;A5 -->
<g id="edge9" class="edge">
<title>A4&#45;&gt;A5</title>
<path fill="none" stroke="#000000" d="M408.846,-234.7733C408.846,-223.8758 408.846,-209.7946 408.846,-197.4587"/>
<polygon fill="#000000" stroke="#000000" points="408.846,-187.1912 413.3461,-197.1911 408.846,-192.1912 408.8461,-197.1912 408.8461,-197.1912 408.8461,-197.1912 408.846,-192.1912 404.3461,-197.1912 408.846,-187.1912 408.846,-187.1912"/>
<text text-anchor="middle" x="470.5235" y="-208" font-family="Helvetica,sans-Serif" font-size="10.00" fill="#000000">____Categories Distribution</text>
</g>
<!-- A4&#45;&gt;A5 -->
<g id="edge10" class="edge">
<title>A4&#45;&gt;A5</title>
<path fill="none" stroke="#000000" d="M436.6844,-248.8465C469.5753,-243.3037 521.3031,-232.3707 532.846,-217 557.0234,-184.805 490.6986,-174.1988 445.9682,-170.7084"/>
<polygon fill="#000000" stroke="#000000" points="435.9614,-170.0154 446.2484,-166.2171 440.9495,-170.3609 445.9375,-170.7064 445.9375,-170.7064 445.9375,-170.7064 440.9495,-170.3609 445.6266,-175.1956 435.9614,-170.0154 435.9614,-170.0154"/>
<text text-anchor="middle" x="587.692" y="-208" font-family="Helvetica,sans-Serif" font-size="10.00" fill="#000000">____Common features</text>
</g>
<!-- A4&#45;&gt;A5 -->
<g id="edge11" class="edge">
<title>A4&#45;&gt;A5</title>
<path fill="none" stroke="#000000" d="M436.502,-250.7488C495.5191,-245.6647 629.5312,-232.5199 642.846,-217 669.2266,-186.2504 519.0226,-174.4777 446.4207,-170.6268"/>
<polygon fill="#000000" stroke="#000000" points="436.3022,-170.1148 446.5169,-166.126 441.2958,-170.3675 446.2894,-170.6203 446.2894,-170.6203 446.2894,-170.6203 441.2958,-170.3675 446.062,-175.1145 436.3022,-170.1148 436.3022,-170.1148"/>
<text text-anchor="middle" x="698.096" y="-208" font-family="Helvetica,sans-Serif" font-size="10.00" fill="#000000">____Length of contents</text>
</g>
<!-- A4&#45;&gt;A5 -->
<g id="edge12" class="edge">
<title>A4&#45;&gt;A5</title>
<path fill="none" stroke="#000000" d="M436.5691,-252.2029C514.911,-249.6669 733.643,-240.5235 754.846,-217 758.4168,-213.0384 758.4168,-208.9616 754.846,-205 734.4434,-182.3645 531.1441,-173.0439 446.0235,-170.113"/>
<polygon fill="#000000" stroke="#000000" points="436.0112,-169.7791 446.1557,-165.615 441.0084,-169.9458 446.0057,-170.1125 446.0057,-170.1125 446.0057,-170.1125 441.0084,-169.9458 445.8556,-174.61 436.0112,-169.7791 436.0112,-169.7791"/>
<text text-anchor="middle" x="819.6445" y="-208" font-family="Helvetica,sans-Serif" font-size="10.00" fill="#000000">____Most popular questions</text>
</g>
<!-- A6 -->
<g id="node7" class="node">
<title>A6</title>
<path fill="none" stroke="#000000" d="M356.8064,-103C356.8064,-103 302.8856,-103 302.8856,-103 296.8856,-103 290.8856,-97 290.8856,-91 290.8856,-91 290.8856,-79 290.8856,-79 290.8856,-73 296.8856,-67 302.8856,-67 302.8856,-67 356.8064,-67 356.8064,-67 362.8064,-67 368.8064,-73 368.8064,-79 368.8064,-79 368.8064,-91 368.8064,-91 368.8064,-97 362.8064,-103 356.8064,-103"/>
<text text-anchor="middle" x="329.846" y="-82" font-family="Helvetica,sans-Serif" font-size="10.00" fill="#000000">{Modelling}</text>
</g>
<!-- A5&#45;&gt;A6 -->
<g id="edge13" class="edge">
<title>A5&#45;&gt;A6</title>
<path fill="none" stroke="#000000" d="M381.5336,-164.1035C363.8101,-159.3686 341.9873,-150.2555 330.717,-133 327.0082,-127.3215 325.5692,-120.4031 325.3318,-113.6067"/>
<polygon fill="#000000" stroke="#000000" points="325.7942,-103.223 329.8447,-113.4134 325.5717,-108.2181 325.3492,-113.2131 325.3492,-113.2131 325.3492,-113.2131 325.5717,-108.2181 320.8536,-113.0129 325.7942,-103.223 325.7942,-103.223"/>
<text text-anchor="middle" x="357.9105" y="-124" font-family="Helvetica,sans-Serif" font-size="10.00" fill="#000000">___Cleaning</text>
</g>
<!-- A5&#45;&gt;A6 -->
<g id="edge14" class="edge">
<title>A5&#45;&gt;A6</title>
<path fill="none" stroke="#000000" d="M403.2994,-150.6998C399.7249,-141.0852 394.3294,-129.5561 386.846,-121 382.9957,-116.5978 378.4768,-112.5425 373.697,-108.8665"/>
<polygon fill="#000000" stroke="#000000" points="365.4787,-103.0438 376.2398,-105.1531 369.5585,-105.9343 373.6383,-108.8249 373.6383,-108.8249 373.6383,-108.8249 369.5585,-105.9343 371.0368,-112.4967 365.4787,-103.0438 365.4787,-103.0438"/>
<text text-anchor="middle" x="432.079" y="-124" font-family="Helvetica,sans-Serif" font-size="10.00" fill="#000000">___Vectorization</text>
</g>
<!-- A6&#45;&gt;A2 -->
<g id="edge15" class="edge">
<title>A6&#45;&gt;A2</title>
<path fill="none" stroke="#000000" d="M291.0522,-75.2668C232.7267,-60.6332 124.1093,-33.3815 75.4875,-21.1824"/>
<polygon fill="#000000" stroke="#000000" points="65.5328,-18.6849 76.3274,-16.7538 70.3825,-19.9017 75.2322,-21.1185 75.2322,-21.1185 75.2322,-21.1185 70.3825,-19.9017 74.1371,-25.4832 65.5328,-18.6849 65.5328,-18.6849"/>
</g>
</g>
</svg>
