<?xml version="1.0" encoding="UTF-8" standalone="no"?>
<!DOCTYPE svg PUBLIC "-//W3C//DTD SVG 1.1//EN"
 "http://www.w3.org/Graphics/SVG/1.1/DTD/svg11.dtd">
<!-- Generated by graphviz version 2.40.1 (20161225.0304)
 -->
<!-- Title: G Pages: 1 -->
<svg width="777pt" height="601pt"
 viewBox="0.00 0.00 777.42 601.00" xmlns="http://www.w3.org/2000/svg" xmlns:xlink="http://www.w3.org/1999/xlink">
<g id="graph0" class="graph" transform="scale(1 1) rotate(0) translate(4 597)">
<title>G</title>
<polygon fill="#ffffff" stroke="transparent" points="-4,4 -4,-597 773.4163,-597 773.4163,4 -4,4"/>
<!-- A0 -->
<g id="node1" class="node">
<title>A0</title>
<ellipse fill="none" stroke="#000000" cx="370.8193" cy="-582" rx="11" ry="11"/>
</g>
<!-- A1 -->
<g id="node2" class="node">
<title>A1</title>
<path fill="none" stroke="#000000" d="M413.5117,-523C413.5117,-523 328.1268,-523 328.1268,-523 322.1268,-523 316.1268,-517 316.1268,-511 316.1268,-511 316.1268,-499 316.1268,-499 316.1268,-493 322.1268,-487 328.1268,-487 328.1268,-487 413.5117,-487 413.5117,-487 419.5117,-487 425.5117,-493 425.5117,-499 425.5117,-499 425.5117,-511 425.5117,-511 425.5117,-517 419.5117,-523 413.5117,-523"/>
<text text-anchor="middle" x="370.8193" y="-502" font-family="Helvetica,sans-Serif" font-size="10.00" fill="#000000">{Kernel is running}</text>
</g>
<!-- A0&#45;&gt;A1 -->
<g id="edge1" class="edge">
<title>A0&#45;&gt;A1</title>
<path fill="none" stroke="#000000" d="M370.8193,-570.9678C370.8193,-561.124 370.8193,-546.2813 370.8193,-533.1664"/>
<polygon fill="#000000" stroke="#000000" points="370.8193,-523.1474 375.3194,-533.1473 370.8193,-528.1474 370.8194,-533.1474 370.8194,-533.1474 370.8194,-533.1474 370.8193,-528.1474 366.3194,-533.1474 370.8193,-523.1474 370.8193,-523.1474"/>
<text text-anchor="middle" x="399.1583" y="-544" font-family="Helvetica,sans-Serif" font-size="10.00" fill="#000000">_Start kernel</text>
</g>
<!-- A2 -->
<g id="node3" class="node">
<title>A2</title>
<path fill="none" stroke="#000000" d="M394.7203,-439C394.7203,-439 346.9182,-439 346.9182,-439 340.9182,-439 334.9182,-433 334.9182,-427 334.9182,-427 334.9182,-415 334.9182,-415 334.9182,-409 340.9182,-403 346.9182,-403 346.9182,-403 394.7203,-403 394.7203,-403 400.7203,-403 406.7203,-409 406.7203,-415 406.7203,-415 406.7203,-427 406.7203,-427 406.7203,-433 400.7203,-439 394.7203,-439"/>
<text text-anchor="middle" x="370.8193" y="-418" font-family="Helvetica,sans-Serif" font-size="10.00" fill="#000000">{Retrieve}</text>
</g>
<!-- A1&#45;&gt;A2 -->
<g id="edge2" class="edge">
<title>A1&#45;&gt;A2</title>
<path fill="none" stroke="#000000" d="M370.8193,-486.7733C370.8193,-475.8758 370.8193,-461.7946 370.8193,-449.4587"/>
<polygon fill="#000000" stroke="#000000" points="370.8193,-439.1912 375.3194,-449.1911 370.8193,-444.1912 370.8194,-449.1912 370.8194,-449.1912 370.8194,-449.1912 370.8193,-444.1912 366.3194,-449.1912 370.8193,-439.1912 370.8193,-439.1912"/>
<text text-anchor="middle" x="397.4993" y="-460" font-family="Helvetica,sans-Serif" font-size="10.00" fill="#000000">_Set up env</text>
</g>
<!-- A3 -->
<g id="node4" class="node">
<title>A3</title>
<path fill="none" stroke="#000000" d="M386.5548,-355C386.5548,-355 355.0838,-355 355.0838,-355 349.0838,-355 343.0838,-349 343.0838,-343 343.0838,-343 343.0838,-331 343.0838,-331 343.0838,-325 349.0838,-319 355.0838,-319 355.0838,-319 386.5548,-319 386.5548,-319 392.5548,-319 398.5548,-325 398.5548,-331 398.5548,-331 398.5548,-343 398.5548,-343 398.5548,-349 392.5548,-355 386.5548,-355"/>
<text text-anchor="middle" x="370.8193" y="-334" font-family="Helvetica,sans-Serif" font-size="10.00" fill="#000000">{EDA}</text>
</g>
<!-- A2&#45;&gt;A3 -->
<g id="edge3" class="edge">
<title>A2&#45;&gt;A3</title>
<path fill="none" stroke="#000000" d="M334.6733,-403.265C328.0666,-398.3042 322.063,-392.2413 318.2453,-385 311.6728,-372.5339 321.385,-361.6502 334.1793,-353.4124"/>
<polygon fill="#000000" stroke="#000000" points="342.8918,-348.3911 336.4748,-357.2834 338.5598,-350.8878 334.2278,-353.3845 334.2278,-353.3845 334.2278,-353.3845 338.5598,-350.8878 331.9807,-349.4857 342.8918,-348.3911 342.8918,-348.3911"/>
<text text-anchor="middle" x="361.6063" y="-376" font-family="Helvetica,sans-Serif" font-size="10.00" fill="#000000">___Import modules</text>
</g>
<!-- A2&#45;&gt;A3 -->
<g id="edge4" class="edge">
<title>A2&#45;&gt;A3</title>
<path fill="none" stroke="#000000" d="M393.8732,-402.9956C401.9117,-394.438 407.9986,-383.7443 403.8193,-373 402.5197,-369.659 400.7492,-366.4396 398.6988,-363.3928"/>
<polygon fill="#000000" stroke="#000000" points="392.3378,-355.3053 402.057,-360.3834 395.4289,-359.2354 398.52,-363.1654 398.52,-363.1654 398.52,-363.1654 395.4289,-359.2354 394.983,-365.9474 392.3378,-355.3053 392.3378,-355.3053"/>
<text text-anchor="middle" x="443.7218" y="-376" font-family="Helvetica,sans-Serif" font-size="10.00" fill="#000000">___Reading Data</text>
</g>
<!-- A4 -->
<g id="node5" class="node">
<title>A4</title>
<path fill="none" stroke="#000000" d="M385.8193,-271C385.8193,-271 355.8193,-271 355.8193,-271 349.8193,-271 343.8193,-265 343.8193,-259 343.8193,-259 343.8193,-247 343.8193,-247 343.8193,-241 349.8193,-235 355.8193,-235 355.8193,-235 385.8193,-235 385.8193,-235 391.8193,-235 397.8193,-241 397.8193,-247 397.8193,-247 397.8193,-259 397.8193,-259 397.8193,-265 391.8193,-271 385.8193,-271"/>
<text text-anchor="middle" x="370.8193" y="-250" font-family="Helvetica,sans-Serif" font-size="10.00" fill="#000000">{FE}</text>
</g>
<!-- A3&#45;&gt;A4 -->
<g id="edge5" class="edge">
<title>A3&#45;&gt;A4</title>
<path fill="none" stroke="#000000" d="M343.0939,-336.3873C261.3313,-334.2967 25.4715,-326.121 2.6873,-301 -.8958,-297.0495 -.8958,-292.9505 2.6873,-289 24.6333,-264.8031 244.266,-256.3278 333.4629,-253.8687"/>
<polygon fill="#000000" stroke="#000000" points="343.6719,-253.5979 333.7948,-258.3615 338.6737,-253.7305 333.6754,-253.8631 333.6754,-253.8631 333.6754,-253.8631 338.6737,-253.7305 333.5561,-249.3647 343.6719,-253.5979 343.6719,-253.5979"/>
<text text-anchor="middle" x="50.8853" y="-292" font-family="Helvetica,sans-Serif" font-size="10.00" fill="#000000">____Data Description</text>
</g>
<!-- A3&#45;&gt;A4 -->
<g id="edge6" class="edge">
<title>A3&#45;&gt;A4</title>
<path fill="none" stroke="#000000" d="M342.7522,-334.9955C280.6026,-330.2719 135.7099,-317.5806 121.3503,-301 92.8081,-268.0434 257.1341,-257.3623 333.4582,-254.2067"/>
<polygon fill="#000000" stroke="#000000" points="343.6145,-253.8098 333.7979,-258.697 338.6184,-254.0051 333.6222,-254.2004 333.6222,-254.2004 333.6222,-254.2004 338.6184,-254.0051 333.4464,-249.7038 343.6145,-253.8098 343.6145,-253.8098"/>
<text text-anchor="middle" x="199.0538" y="-292" font-family="Helvetica,sans-Serif" font-size="10.00" fill="#000000">____Host Distribution Visualization</text>
</g>
<!-- A3&#45;&gt;A4 -->
<g id="edge7" class="edge">
<title>A3&#45;&gt;A4</title>
<path fill="none" stroke="#000000" d="M343.2012,-330.9256C327.1487,-325.8241 308.2165,-316.7448 298.4643,-301 287.2126,-282.8343 310.605,-270.0691 333.7256,-262.2933"/>
<polygon fill="#000000" stroke="#000000" points="343.516,-259.2651 335.2923,-266.5191 338.7393,-260.7426 333.9625,-262.2201 333.9625,-262.2201 333.9625,-262.2201 338.7393,-260.7426 332.6328,-257.921 343.516,-259.2651 343.516,-259.2651"/>
<text text-anchor="middle" x="360.4968" y="-292" font-family="Helvetica,sans-Serif" font-size="10.00" fill="#000000">____Categories Distribution</text>
</g>
<!-- A3&#45;&gt;A4 -->
<g id="edge8" class="edge">
<title>A3&#45;&gt;A4</title>
<path fill="none" stroke="#000000" d="M398.4606,-324.2468C407.604,-318.524 416.7334,-310.8152 421.8193,-301 428.1369,-288.8075 418.9545,-278.0308 406.7186,-269.7936"/>
<polygon fill="#000000" stroke="#000000" points="397.9126,-264.5105 408.8029,-265.7964 402.2002,-267.0829 406.4878,-269.6552 406.4878,-269.6552 406.4878,-269.6552 402.2002,-267.0829 404.1727,-273.514 397.9126,-264.5105 397.9126,-264.5105"/>
<text text-anchor="middle" x="474.6653" y="-292" font-family="Helvetica,sans-Serif" font-size="10.00" fill="#000000">____Common features</text>
</g>
<!-- A3&#45;&gt;A4 -->
<g id="edge9" class="edge">
<title>A3&#45;&gt;A4</title>
<path fill="none" stroke="#000000" d="M398.6267,-334.7913C439.757,-330.8822 513.6992,-321.1779 529.8193,-301 533.1482,-296.8331 533.1482,-293.1669 529.8193,-289 514.8772,-270.2966 450.2547,-260.592 408.1336,-256.1603"/>
<polygon fill="#000000" stroke="#000000" points="397.9536,-255.145 408.3509,-251.6598 402.9289,-255.6413 407.9042,-256.1375 407.9042,-256.1375 407.9042,-256.1375 402.9289,-255.6413 407.4576,-260.6153 397.9536,-255.145 397.9536,-255.145"/>
<text text-anchor="middle" x="584.0693" y="-292" font-family="Helvetica,sans-Serif" font-size="10.00" fill="#000000">____Length of contents</text>
</g>
<!-- A3&#45;&gt;A4 -->
<g id="edge10" class="edge">
<title>A3&#45;&gt;A4</title>
<path fill="none" stroke="#000000" d="M398.7128,-335.3317C464.4975,-331.1135 625.0101,-319.0569 640.8193,-301 672.2217,-265.1327 489.2727,-256.0078 408.1136,-253.7346"/>
<polygon fill="#000000" stroke="#000000" points="397.8261,-253.4681 407.9394,-249.2287 402.8244,-253.5976 407.8228,-253.7272 407.8228,-253.7272 407.8228,-253.7272 402.8244,-253.5976 407.7062,-258.2257 397.8261,-253.4681 397.8261,-253.4681"/>
<text text-anchor="middle" x="706.6178" y="-292" font-family="Helvetica,sans-Serif" font-size="10.00" fill="#000000">____Most popular questions</text>
</g>
<!-- A5 -->
<g id="node6" class="node">
<title>A5</title>
<path fill="none" stroke="#000000" d="M397.7796,-187C397.7796,-187 343.8589,-187 343.8589,-187 337.8589,-187 331.8589,-181 331.8589,-175 331.8589,-175 331.8589,-163 331.8589,-163 331.8589,-157 337.8589,-151 343.8589,-151 343.8589,-151 397.7796,-151 397.7796,-151 403.7796,-151 409.7796,-157 409.7796,-163 409.7796,-163 409.7796,-175 409.7796,-175 409.7796,-181 403.7796,-187 397.7796,-187"/>
<text text-anchor="middle" x="370.8193" y="-166" font-family="Helvetica,sans-Serif" font-size="10.00" fill="#000000">{Modelling}</text>
</g>
<!-- A4&#45;&gt;A5 -->
<g id="edge11" class="edge">
<title>A4&#45;&gt;A5</title>
<path fill="none" stroke="#000000" d="M343.7924,-248.2699C325.9557,-243.5937 303.884,-234.4828 292.6903,-217 281.9227,-200.1828 300.4651,-188.3218 322.1796,-180.5977"/>
<polygon fill="#000000" stroke="#000000" points="331.9433,-177.4377 323.8148,-184.7983 327.1862,-178.9773 322.4292,-180.517 322.4292,-180.517 322.4292,-180.517 327.1862,-178.9773 321.0435,-176.2356 331.9433,-177.4377 331.9433,-177.4377"/>
<text text-anchor="middle" x="320.8838" y="-208" font-family="Helvetica,sans-Serif" font-size="10.00" fill="#000000">___Cleaning</text>
</g>
<!-- A4&#45;&gt;A5 -->
<g id="edge12" class="edge">
<title>A4&#45;&gt;A5</title>
<path fill="none" stroke="#000000" d="M370.8193,-234.7733C370.8193,-223.8758 370.8193,-209.7946 370.8193,-197.4587"/>
<polygon fill="#000000" stroke="#000000" points="370.8193,-187.1912 375.3194,-197.1911 370.8193,-192.1912 370.8194,-197.1912 370.8194,-197.1912 370.8194,-197.1912 370.8193,-192.1912 366.3194,-197.1912 370.8193,-187.1912 370.8193,-187.1912"/>
<text text-anchor="middle" x="408.0523" y="-208" font-family="Helvetica,sans-Serif" font-size="10.00" fill="#000000">___Vectorization</text>
</g>
<!-- A4&#45;&gt;A5 -->
<g id="edge13" class="edge">
<title>A4&#45;&gt;A5</title>
<path fill="none" stroke="#000000" d="M397.9124,-247.6443C414.8449,-242.7463 435.3581,-233.6253 445.8193,-217 455.8409,-201.0733 439.3763,-189.4404 419.3472,-181.6187"/>
<polygon fill="#000000" stroke="#000000" points="409.6539,-178.1874 420.5823,-177.2824 414.3673,-179.8559 419.0807,-181.5245 419.0807,-181.5245 419.0807,-181.5245 414.3673,-179.8559 417.579,-185.7665 409.6539,-178.1874 409.6539,-178.1874"/>
<text text-anchor="middle" x="495.7758" y="-208" font-family="Helvetica,sans-Serif" font-size="10.00" fill="#000000">___Word Embedding</text>
</g>
<!-- A6 -->
<g id="node7" class="node">
<title>A6</title>
<path fill="none" stroke="#000000" d="M402.8383,-103C402.8383,-103 338.8003,-103 338.8003,-103 332.8003,-103 326.8003,-97 326.8003,-91 326.8003,-91 326.8003,-79 326.8003,-79 326.8003,-73 332.8003,-67 338.8003,-67 338.8003,-67 402.8383,-67 402.8383,-67 408.8383,-67 414.8383,-73 414.8383,-79 414.8383,-79 414.8383,-91 414.8383,-91 414.8383,-97 408.8383,-103 402.8383,-103"/>
<text text-anchor="middle" x="370.8193" y="-82" font-family="Helvetica,sans-Serif" font-size="10.00" fill="#000000">{Deployment}</text>
</g>
<!-- A5&#45;&gt;A6 -->
<g id="edge14" class="edge">
<title>A5&#45;&gt;A6</title>
<path fill="none" stroke="#000000" d="M370.8193,-150.7733C370.8193,-139.8758 370.8193,-125.7946 370.8193,-113.4587"/>
<polygon fill="#000000" stroke="#000000" points="370.8193,-103.1912 375.3194,-113.1911 370.8193,-108.1912 370.8194,-113.1912 370.8194,-113.1912 370.8194,-113.1912 370.8193,-108.1912 366.3194,-113.1912 370.8193,-103.1912 370.8193,-103.1912"/>
<text text-anchor="middle" x="443.8818" y="-124" font-family="Helvetica,sans-Serif" font-size="10.00" fill="#000000">___Deep RNN with LSTM blocks</text>
</g>
<!-- A7 -->
<g id="node8" class="node">
<title>A7</title>
<ellipse fill="none" stroke="#000000" cx="370.8193" cy="-15" rx="11" ry="11"/>
<ellipse fill="none" stroke="#000000" cx="370.8193" cy="-15" rx="15" ry="15"/>
</g>
<!-- A6&#45;&gt;A7 -->
<g id="edge15" class="edge">
<title>A6&#45;&gt;A7</title>
<path fill="none" stroke="#000000" d="M370.8193,-66.9733C370.8193,-58.9095 370.8193,-49.2597 370.8193,-40.4761"/>
<polygon fill="#000000" stroke="#000000" points="370.8193,-30.3564 375.3194,-40.3563 370.8193,-35.3564 370.8194,-40.3564 370.8194,-40.3564 370.8194,-40.3564 370.8193,-35.3564 366.3194,-40.3564 370.8193,-30.3564 370.8193,-30.3564"/>
</g>
</g>
</svg>
